<?xml version="1.0" encoding="UTF-8"?>
<svg xmlns="http://www.w3.org/2000/svg" viewBox="0 0 400 400" role="img">
  <title>Sample sticker artwork: ABG Before Coffee</title>
  <desc>Placeholder artwork for MedicalStickers.shop. Replace this file with a photo of the printed sticker.</desc>
  <g fill="#FFFFFF"><path d="M200 36C268 22 338 62 358 128C380 202 352 268 312 312C268 360 210 378 156 360C92 338 42 292 36 220C28 140 112 54 200 36Z"/></g>
  <g fill="#243F38" transform="translate(200 200) scale(0.9) translate(-200 -200)"><path d="M200 36C268 22 338 62 358 128C380 202 352 268 312 312C268 360 210 378 156 360C92 338 42 292 36 220C28 140 112 54 200 36Z"/></g>
  <g transform="translate(200 112) scale(0.7) translate(-50 -50)"><path d="M28 22c2 8 2 8 0 14M44 18c2 8 2 8 0 16" fill="none" stroke="#F6F3EE" stroke-width="3" stroke-linecap="round"/><rect x="20" y="38" width="44" height="40" rx="8" fill="#E7C98A"/><path d="M64 46h8a12 12 0 0 1 0 24h-8" fill="none" stroke="#E7C98A" stroke-width="6" stroke-linecap="round"/><path d="M34 54h16M42 46v16" stroke="#FFFCF8" stroke-width="3" stroke-linecap="round"/></g>
  <text x="200" y="168.6" text-anchor="middle" fill="#F6F3EE" font-family="Georgia, 'Liberation Serif', 'Noto Serif', 'Times New Roman', serif" font-weight="700" font-size="30"><tspan x="200" dy="0">ABG BEFORE</tspan><tspan x="200" dy="33.6">COFFEE</tspan></text>
</svg>
